name Walk6.mot
datacolumns 19
datarows 15
range 1.59000000 1.66000000
endheader

                time	   L_ground_force_vx	   L_ground_force_vy	   L_ground_force_vz	   L_ground_force_px	   L_ground_force_py	   L_ground_force_pz	   R_ground_force_vx	   R_ground_force_vy	   R_ground_force_vz	   R_ground_force_px	   R_ground_force_py	   R_ground_force_pz	   L_ground_torque_x	   L_ground_torque_y	   L_ground_torque_z	   R_ground_torque_x	   R_ground_torque_y	   R_ground_torque_z	
          1.59000000	         21.85478564	        523.56961894	         33.53425261	         -0.33946283	          0.00000000	         -0.08301044	         -0.01711766	          0.25537115	          0.01238985	          0.00013040	          0.00000000	          0.00006218	          0.00000000	         -0.34445191	          0.00000000	          0.00000000	          0.00072687	          0.00000000	
          1.59500000	         23.36731847	        532.00507085	         34.27499733	         -0.33769408	          0.00000000	         -0.08369661	         -0.02608290	          0.32334489	          0.01277556	          0.00015733	          0.00000000	          0.00007439	          0.00000000	         -0.34045543	          0.00000000	          0.00000000	          0.00102870	          0.00000000	
          1.60000000	         25.04068381	        540.93857120	         35.02777477	         -0.33605547	          0.00000000	         -0.08432302	         -0.03684638	          0.38946425	          0.01180144	          0.00017993	          0.00000000	          0.00008425	          0.00000000	         -0.33931898	          0.00000000	          0.00000000	          0.00137249	          0.00000000	
          1.60500000	         26.88376989	        550.33236966	         35.79228721	         -0.33454618	          0.00000000	         -0.08489026	         -0.04908652	          0.44453757	          0.00882697	          0.00019297	          0.00000000	          0.00008925	          0.00000000	         -0.34179347	          0.00000000	          0.00000000	          0.00173933	          0.00000000	
          1.61000000	         28.90206887	        560.14080841	         36.56827739	         -0.33316286	          0.00000000	         -0.08540177	         -0.06211981	          0.47559382	          0.00310003	          0.00018952	          0.00000000	          0.00008603	          0.00000000	         -0.34836495	          0.00000000	          0.00000000	          0.00209686	          0.00000000	
          1.61500000	         31.09801025	        570.30853420	         37.35432190	         -0.33189985	          0.00000000	         -0.08586078	         -0.07478254	          0.46536823	         -0.00621277	          0.00016076	          0.00000000	          0.00007040	          0.00000000	         -0.35959996	          0.00000000	          0.00000000	          0.00239578	          0.00000000	
          1.62000000	         33.46999347	        580.77378270	         38.14561479	         -0.33075031	          0.00000000	         -0.08626931	         -0.08530575	          0.39202968	         -0.01996875	          0.00009608	          0.00000000	          0.00003735	          0.00000000	         -0.37619540	          0.00000000	          0.00000000	          0.00256645	          0.00000000	
          1.62500000	         36.01126413	        591.46764244	         38.93279070	         -0.32970682	          0.00000000	         -0.08662796	         -0.09119485	          0.22931877	         -0.03895683	         -0.00001663	          0.00000000	         -0.00001880	          0.00000000	         -0.39893568	          0.00000000	          0.00000000	          0.00251607	          0.00000000	
          1.63000000	         38.71160735	        602.30978970	         39.70339583	         -0.32876013	          0.00000000	         -0.08693775	         -0.08913129	         -0.05269076	         -0.06376200	         -0.00019033	          0.00000000	         -0.00010403	          0.00000000	         -0.42871299	          0.00000000	          0.00000000	          0.00212721	          0.00000000	
          1.63500000	         41.56217738	        613.20560602	         40.44435615	         -0.32789839	          0.00000000	         -0.08720210	         -0.07492104	         -0.48595246	         -0.09457902	         -0.00043772	          0.00000000	         -0.00022412	          0.00000000	         -0.46606754	          0.00000000	          0.00000000	          0.00125849	          0.00000000	
          1.64000000	         44.55863666	        624.04603318	         41.14352261	         -0.32710870	          0.00000000	         -0.08742633	         -0.04352199	         -1.10164038	         -0.13097021	         -0.00076951	          0.00000000	         -0.00038374	          0.00000000	         -0.51068846	          0.00000000	          0.00000000	         -0.00025139	          0.00000000	
          1.64500000	         47.70019902	        634.70769491	         41.79154298	         -0.32637848	          0.00000000	         -0.08761544	          0.01080853	         -1.92586844	         -0.17156560	         -0.00119200	          0.00000000	         -0.00058533	          0.00000000	         -0.56109147	          0.00000000	          0.00000000	         -0.00257486	          0.00000000	
          1.65000000	         50.98641814	        645.05339673	         42.38314283	         -0.32569505	          0.00000000	         -0.08777386	          0.09419746	         -2.97363929	         -0.21371036	         -0.00170382	          0.00000000	         -0.00082749	          0.00000000	         -0.61499427	          0.00000000	          0.00000000	         -0.00588049	          0.00000000	
          1.65500000	         54.41441403	        654.93656048	         42.91748432	         -0.32504616	          0.00000000	         -0.08790779	          0.21261526	         -4.24077866	         -0.25307355	         -0.00229181	          0.00000000	         -0.00110305	          0.00000000	         -0.66965059	          0.00000000	          0.00000000	         -0.01030998	          0.00000000	
          1.66000000	         57.97902566	        664.20688790	         43.39788234	         -0.32442167	          0.00000000	         -0.08802316	          0.37105214	         -5.69372301	         -0.28324465	         -0.00292606	          0.00000000	         -0.00139673	          0.00000000	         -0.72190738	          0.00000000	          0.00000000	         -0.01594573	          0.00000000	
